Coordinates
version=1
nRows=4
nColumns=107
inDegrees=yes

Units are S.I. units (second, meters, Newtons, ...)
If the header above contains a line with 'inDegrees', this indicates whether rotational values are in degrees (yes) or radians (no).

endheader
time	sternoclavicular_r2	sternoclavicular_r3	unrotscap_r3	unrotscap_r2	acromioclavicular_r2	acromioclavicular_r3	acromioclavicular_r1	unrothum_r1	unrothum_r3	unrothum_r2	elv_angle	shoulder_elv	shoulder1_r2	shoulder_rot	elbow_flexion	pro_sup	deviation	flexion	proximal_distal_r1	proximal_distal_r3	cmc_flexion	cmc_abduction	mp_flexion	ip_flexion	mcp2_flexion	mcp2_abduction	pm2_flexion	md2_flexion	mcp3_flexion	mcp3_abduction	pm3_flexion	md3_flexion	mcp4_flexion	mcp4_abduction	pm4_flexion	md4_flexion	mcp5_flexion	mcp5_abduction	pm5_flexion	md5_flexion	bicpt_tx	bicpt_ty	bicpt_tz	bicpt2_tx	bicpt2_ty	bicpt2_tz	ptpt_tx	ptpt_ty	ptpt_tz	FCUpt_tx	FCUpt_ty	FCUpt_tz	EDCpt_tx	EDCpt_ty	EDCpt_tz	APLpt_tx	APLpt_ty	APLpt_tz	FPLpt_tx	FPLpt_ty	FPLpt_tz	FPLpt2_tx	FPLpt2_ty	FPLpt2_tz	PEC1pt2_tx	PEC1pt2_ty	PEC1pt2_tz	PEC1pt3_tx	PEC1pt3_ty	PEC1pt3_tz	PEC2pt2_tx	PEC2pt2_ty	PEC2pt2_tz	PEC2pt3_tx	PEC2pt3_ty	PEC2pt3_tz	PEC3pt2_tx	PEC3pt2_ty	PEC3pt2_tz	PEC3pt3_tx	PEC3pt3_ty	PEC3pt3_tz	DELT2pt2a_tx	DELT2pt2a_ty	DELT2pt2a_tz	DELT2pt2_tx	DELT2pt2_ty	DELT2pt2_tz	LAT1pt2_tx	LAT1pt2_ty	LAT1pt2_tz	LAT1pt3_tx	LAT1pt3_ty	LAT1pt3_tz	LAT2pt2_tx	LAT2pt2_ty	LAT2pt2_tz	LAT2pt3_tx	LAT2pt3_ty	LAT2pt3_tz	LAT3pt2_tx	LAT3pt2_ty	LAT3pt2_tz	LAT3pt3_tx	LAT3pt3_ty	LAT3pt3_tz
      1.03333333	     -0.32247166	      0.13658378	     -0.13658378	      0.32247166	     -0.06529395	      0.52768275	      0.23718977	     -0.23718977	     -0.52768275	      0.06529395	     99.10107429	     76.34803234	     -1.72964004	    -21.77779135	     28.48127529	     24.02897684	      0.03164812	     -0.70437384	      0.04213151	     -0.35218692	     -1.42996494	     -4.61916353	    -29.60928039	    -43.38113651	      4.48381143	      9.14057380	     29.03727733	    -14.61364130	     29.83640913	      9.30456186	     80.20804795	     63.65821007	     24.60522569	     -3.17749738	     76.46259014	     46.51511087	     13.84154325	    -13.51226962	     -2.92049775	      5.08962175	      0.00084207	     -0.03086439	     -0.00482581	      0.01625285	     -0.01793708	     -0.00899618	      0.00577453	     -0.06604805	     -0.00198566	      0.00621165	     -0.18379109	     -0.00017702	     -0.00288347	      0.00076992	      0.00019197	      0.00030520	      0.00012208	      0.00061039	      0.00039065	      0.00117195	      0.00065922	     -0.00005761	      0.00003688	      0.00004426	      0.00250252	      0.00878003	      0.00610785	     -0.00818621	      0.01976567	     -0.01874770	      0.00250252	      0.00878003	      0.00610785	      0.00055140	      0.01832354	     -0.00962834	      0.00395479	      0.00488246	      0.01598436	      0.00000000	      0.00779578	      0.00000000	     -0.00716824	     -0.03312659	     -0.00642807	      0.01478101	     -0.00048716	     -0.00393994	     -0.00089073	      0.01493029	     -0.00610785	      0.00246011	      0.02154713	     -0.01781456	     -0.00598060	      0.01293676	     -0.00547161	     -0.01247019	      0.02731565	     -0.03058165	     -0.02341342	      0.01446372	     -0.00733790	     -0.01552411	      0.03155721	     -0.03821646
      1.06666667	     -0.32276543	      0.13670820	     -0.13670820	      0.32276543	     -0.06535343	      0.52816346	      0.23740584	     -0.23740584	     -0.52816346	      0.06535343	     99.03626212	     76.41758412	     -1.72850885	    -21.42140471	     28.43898844	     23.89668546	      0.02598951	     -0.69739031	      0.03471868	     -0.34869515	      0.09390104	     -4.80116588	    -28.79032012	    -43.03917382	      8.22826050	      9.51188049	     30.94267753	    -13.85541891	     27.69443135	      8.97353235	     78.82947598	     63.28305732	     22.41340340	     -3.11861527	     75.01417124	     46.07157843	     14.92639982	    -13.50466372	     -2.29093667	      5.23028753	      0.00084067	     -0.03085954	     -0.00482503	      0.01624770	     -0.01792559	     -0.00900729	      0.00578430	     -0.06604173	     -0.00197501	      0.00619899	     -0.18379323	     -0.00017446	     -0.00286760	      0.00076520	      0.00019175	      0.00030623	      0.00012249	      0.00061246	      0.00039197	      0.00117592	      0.00066146	      0.00000277	     -0.00000234	     -0.00000281	      0.00250480	      0.00878803	      0.00611341	     -0.00819367	      0.01978368	     -0.01876478	      0.00250480	      0.00878803	      0.00611341	      0.00055191	      0.01834024	     -0.00963711	      0.00395742	      0.00488691	      0.01599076	      0.00000000	      0.00781009	      0.00000000	     -0.00717477	     -0.03315677	     -0.00643995	      0.01458297	     -0.00047599	     -0.00380739	     -0.00089154	      0.01494390	     -0.00611341	      0.00246235	      0.02156676	     -0.01783078	     -0.00598605	      0.01294855	     -0.00547660	     -0.01248155	      0.02734054	     -0.03060951	     -0.02343475	      0.01447690	     -0.00734459	     -0.01553826	      0.03158596	     -0.03825128
      1.10000000	     -0.32307256	      0.13683829	     -0.13683829	      0.32307256	     -0.06541562	      0.52866604	      0.23763175	     -0.23763175	     -0.52866604	      0.06541562	     98.97477759	     76.49029940	     -1.72743575	    -21.02223923	     28.36348405	     23.63621613	      0.01868583	     -0.68866805	      0.02507357	     -0.34433402	      1.57576887	     -4.97431058	    -27.75353330	    -42.44107326	     12.24028843	      9.86547526	     33.45334793	    -12.82669441	     25.33164732	      8.64455927	     76.47232538	     62.44296315	     19.84693013	     -2.95672101	     72.70646580	     45.26231172	     15.85674511	    -13.46355345	     -1.40004639	      5.34124305	      0.00083818	     -0.03085089	     -0.00482363	      0.01623754	     -0.01790508	     -0.00902917	      0.00580355	     -0.06602928	     -0.00195402	      0.00617407	     -0.18379745	     -0.00016943	     -0.00283634	      0.00075590	      0.00019133	      0.00030743	      0.00012297	      0.00061486	      0.00039351	      0.00118053	      0.00066405	      0.00003235	     -0.00003802	     -0.00004562	      0.00250718	      0.00879639	      0.00611923	     -0.00820147	      0.01980251	     -0.01878263	      0.00250718	      0.00879639	      0.00611923	      0.00055243	      0.01835769	     -0.00964628	      0.00396016	      0.00489156	      0.01599744	      0.00000000	      0.00782507	      0.00000000	     -0.00718160	     -0.03318832	     -0.00645238	      0.01435916	     -0.00046354	     -0.00366122	     -0.00089239	      0.01495812	     -0.00611923	      0.00246469	      0.02158728	     -0.01784775	     -0.00599175	      0.01296087	     -0.00548181	     -0.01249343	      0.02736655	     -0.03063864	     -0.02345704	      0.01449067	     -0.00735157	     -0.01555304	      0.03161602	     -0.03828768
      1.13333333	     -0.32348540	      0.13701315	     -0.13701315	      0.32348540	     -0.06549921	      0.52934160	      0.23793541	     -0.23793541	     -0.52934160	      0.06549921	     98.91228097	     76.58804427	     -1.72634497	    -20.57202410	     28.25111103	     23.29029249	      0.00965962	     -0.67595558	      0.01303312	     -0.33797779	      2.96861946	     -4.95776358	    -26.49130244	    -41.53936122	     16.15686689	     10.22180026	     36.38596714	    -11.54754910	     23.07061368	      8.23069058	     73.11896742	     61.04409472	     17.31368549	     -2.81531985	     69.89079653	     44.18089308	     16.58854567	    -13.40929611	     -0.17048971	      5.43788884	      0.00083446	     -0.03083801	     -0.00482156	      0.01622381	     -0.01787455	     -0.00905808	      0.00582911	     -0.06601276	     -0.00192616	      0.00614101	     -0.18380303	     -0.00016267	     -0.00279483	      0.00074360	      0.00019072	      0.00030895	      0.00012358	      0.00061790	      0.00039546	      0.00118638	      0.00066734	      0.00004193	     -0.00006934	     -0.00008321	      0.00251039	      0.00880763	      0.00612705	     -0.00821195	      0.01982781	     -0.01880664	      0.00251039	      0.00880763	      0.00612705	      0.00055314	      0.01838115	     -0.00965861	      0.00396385	      0.00489781	      0.01600640	      0.00000000	      0.00784522	      0.00000000	     -0.00719077	     -0.03323073	     -0.00646911	      0.01410418	     -0.00044957	     -0.00349930	     -0.00089353	      0.01497723	     -0.00612705	      0.00246784	      0.02161487	     -0.01787056	     -0.00599940	      0.01297743	     -0.00548881	     -0.01250939	      0.02740152	     -0.03067779	     -0.02348702	      0.01450919	     -0.00736097	     -0.01557292	      0.03165642	     -0.03833660
